<?xml version="1.0" encoding="utf-8"?>
<!-- Generator: Adobe Illustrator 19.0.0, SVG Export Plug-In . SVG Version: 6.00 Build 0)  -->
<svg version="1.1" id="图层_1" xmlns="http://www.w3.org/2000/svg" xmlns:xlink="http://www.w3.org/1999/xlink" x="0px" y="0px"
	 viewBox="0 0 1137.1 228.8" style="enable-background:new 0 0 1137.1 228.8;" xml:space="preserve">
<style type="text/css">
	.st0{fill-rule:evenodd;clip-rule:evenodd;fill:#00355D;}
</style>
<g id="XMLID_1_">
	<g id="XMLID_229_">
		<path id="XMLID_230_" class="st0" d="M1122.2,60.6l-84,0.7v12.6h81.9L1122.2,60.6z M849.5,112.6c2.2,1.9,6.6,5.4,11.7,8.3
			c8.3,4.8,20.3,10.8,20.3,10.8l4.8-19.1c0,0-9.6-1.2-19.1-3.6c-7.5-1.9-15-4.5-17.9-5.5V79.2c0.4-13.3,0.7-18.6,0.7-18.6l-72.9,0
			l1.5,12.2h52.2v31.7c0,44.1,20.1,64.2,46.1,64.8c2.4,0.1,12.4-0.6,12.4-0.6s0.9-3.2,1.5-5.7l6-14.6c0,0-15.4,1.9-19.7,2
			C861.8,150.8,851.2,137.3,849.5,112.6z M0,170.5h27.7v-44.8h27.7v-19.2H27.7V83h36.2V61.7H0V170.5z M70.3,170.5H98V61.7H70.3
			V170.5z M108.6,83h25.5v87.4h27.7V83h25.5V61.7h-78.7V83z M391.7,61.7H364v108.8h63.8v-21.3h-36.1V61.7z M482.1,61.7
			c-26.5,0-48,17.9-48,40v28.7c0,22.1,21.5,40,48,40c26.5,0,47.9-17.9,47.9-40v-28.7C530,79.6,508.6,61.7,482.1,61.7z M503.4,131.4
			c0,9.8-9.5,17.8-21.3,17.8c-11.8,0-21.3-8-21.3-17.8v-30.6c0-9.8,9.5-17.8,21.3-17.8c11.7,0,21.3,8,21.3,17.8V131.4z M682.2,61.7
			h-41.5v108.8h41.5c26.5,0,47.9-17.9,47.9-40v-28.7C730.1,79.6,708.6,61.7,682.2,61.7z M703.4,131.4c0,9.8-9.5,17.8-21.2,17.8
			h-13.9V83h13.9c11.7,0,21.2,8,21.2,17.8V131.4z M281.1,101.7v28.7c0,22.1,21.5,40,47.9,40c6.6,0,26.6-1.8,26.6-1.8v-20.8
			c0,0-19.9,1.2-26.6,1.2c-11.7,0-22.4-8-22.4-17.8v-30.6C306.6,91,317.3,83,329,83c6.6,0,26.6,1.2,26.6,1.2V63.5
			c0,0-19.9-1.8-26.6-1.8C302.6,61.7,281.1,79.6,281.1,101.7z M605.5,131.4c0,9.8-9.5,17.8-21.3,17.8c-11.8,0-21.3-8-21.3-17.8V61.7
			h-26.7v68.7c0,22.1,21.5,40,48,40c26.5,0,48-17.9,48-40V61.7h-26.7V131.4z M254.6,63.2c-14.2-5.6-39.9-1.2-49.3,4v24.3
			c11.1-7.5,26.5-11.4,35.3-7.7c6,2.5,8.2,8.5,6.9,14.4c-1,4.8-4.8,9.5-7.4,12.1c-16.8,16.5-41.9,39.1-41.9,39.1v21.2h72.1v-21.2
			c0,0-29.9,0-38.5,0c26.1-19.8,39.6-34.3,40.9-53.3C273.8,83,268.7,68.7,254.6,63.2z M943.9,104.5l0.6,3.1l14.5-0.3l-7-30
			l-13.6,0.1l3.8,17.7l-19.5,0l9-19.5l-13.4-6.7l-13.1,27.7l0.8,7.9L943.9,104.5z M918.1,68.7H942l0,0h18l3.8-11.2l-56.6,0.3v10.9
			L918.1,68.7L918.1,68.7z M1005.6,88.7l1.1-9.1h8l2.3-11.4h-33.1l2.3-11.9h-14.6c0,0-1.2,6.6-3.4,13.8c-2.6,8.3-8.4,18.9-8.4,18.9
			s15.8,0,15.3,0c-0.4,0,4.9-9.3,6.9-15.5c0.9-2.7,1.7-4.9,1.7-4.9l1.4,11h5.7l-1.1,9.1c-0.1,4-1.5,11.7-2.3,18.2
			c-0.2,1.5-3.2,8.4-3.7,9.7c-3.4-6.8-8.8-19.3-8.8-19.5l-0.2-0.8L960.2,97c0,0,7.5,24.4,14.8,36.8c-2.2,3.6-6.8,11.1-10.8,15.2
			c-1.4,1.4-4.3,3.7-6.1,5.1l-0.2-9.3l-13.8,1.7l0.1-16.9l21.1,0l-3.6-10.7l-17.5-0.2v-6.3h-17.8v6.3l-18.5-0.3l1.1,11.1l17.3,0
			v18.5l-19.4,2.3l-3.4,14.1l53.4-7.9l0.1,0l-0.7,13c0,0,7.5-1.8,14.2-6.9c5.1-3.9,11.9-13.4,13-14.7l0.4-0.4
			c3.1,4.4,6.4,8.7,10,11.7c11,9.1,21.7,14.8,21.7,14.8l-1.1-19.4c0,0-13.4-10.4-19.8-21.8c1.4-2.5,4.6-13.4,6.2-18.1
			C1003.3,107.9,1005.5,94.4,1005.6,88.7z M1137.1,99.8l-111.8,0.8v13.5h33c-6.7,14.2-20.8,41.6-20.8,41.6l-6.4,3l1.9,12.3l80.8-7.2
			l4.5,9l16.2-7.2l-17.9-32.3l-16.3,5.9l7.3,12.9l-50.3,2.7l18.8-35.9l-17.7-4.8l76.5,0L1137.1,99.8z M871.9,91
			c7.4-2.8,14.3-7.2,14.3-7.2L879,69.4c0,0-4.6,4.7-12,10.8c-7,5.8-15.5,10.8-15.5,10.8l1.2,4.8C852.7,95.7,863.3,94.1,871.9,91z"/>
	</g>
</g>
</svg>
