<?xml version="1.0" encoding="utf-8"?>
<!-- Generator: Adobe Illustrator 19.0.0, SVG Export Plug-In . SVG Version: 6.00 Build 0)  -->
<svg version="1.1" id="图层_1" xmlns="http://www.w3.org/2000/svg" xmlns:xlink="http://www.w3.org/1999/xlink" x="0px" y="0px"
	 viewBox="0 0 1259.7 234.4" style="enable-background:new 0 0 1259.7 234.4;" xml:space="preserve">
<style type="text/css">
	.st0{fill:#FC6554;}
	.st1{fill:#D11313;}
	.st2{fill:#EF3A35;}
</style>
<g id="XMLID_219_">
	<path id="XMLID_216_" class="st0" d="M102.3,3.5l98.3,56.7v113.5l-98.3,56.7L4,173.7V60.3L102.3,3.5 M102.3,0.4L1.3,58.7v116.6
		l101,58.3l101-58.3V58.7L102.3,0.4L102.3,0.4z"/>
	<g id="XMLID_213_">
		<polygon id="XMLID_215_" class="st1" points="162.9,154.2 102.3,189.2 102.3,219.9 189.5,169.6 		"/>
		<polygon id="XMLID_214_" class="st1" points="164.8,83.1 164.8,150.9 191.4,166.3 191.4,67.7 		"/>
	</g>
	<g id="XMLID_210_">
		<polygon id="XMLID_212_" class="st0" points="41.6,79.8 102.3,44.8 162.9,79.8 189.5,64.4 102.3,14.1 15,64.4 		"/>
		<polygon id="XMLID_211_" class="st0" points="13.1,65.5 13.1,65.5 13.1,65.5 		"/>
	</g>
	<g id="XMLID_200_">
		<g id="XMLID_207_">
			<polygon id="XMLID_793_" class="st1" points="102.3,177 154.2,147 154.2,87 102.3,117 			"/>
		</g>
		<g id="XMLID_204_">
			<polygon id="XMLID_794_" class="st0" points="50.3,87 102.3,57 154.2,87 102.3,117 			"/>
		</g>
		<g id="XMLID_201_">
			<polygon id="XMLID_795_" class="st2" points="102.3,177 50.3,147 50.3,87 102.3,117 			"/>
		</g>
	</g>
	<g id="XMLID_197_">
		<polygon id="XMLID_199_" class="st2" points="13.1,166.3 39.7,150.9 39.7,83.1 13.1,67.7 		"/>
		<polygon id="XMLID_198_" class="st2" points="41.6,154.2 15,169.6 102.3,219.9 102.3,189.2 		"/>
	</g>
</g>
<path id="XMLID_42_" class="st0" d="M307.5,177c-0.6-0.8-1.5-2.3-2.9-4.5l-10.4-16.6c-2.3-3.7-4.4-7-6.2-9.8l-16.1-25.4V177h-30.3
	V58.6h30.3v51.2L305,58.6h31.6l-38.4,56.2c0,0.1,0.5,1,1.5,2.5l4.1,6.3c1.6,2.4,3.6,5.4,5.9,8.9l29.2,44.4H307.5z"/>
<path id="XMLID_46_" class="st0" d="M515.8,127.7v8.4c0,13.7-1,22.1-3,25.4c-0.7,2.2-2.5,4.8-5.5,7.8c-6.4,5.9-17.2,8.8-32.4,8.8
	c-10.7,0-22.2-1.2-34.4-3.5V58.8l25.9-4.5v40.5c3.2-1.1,6.7-1.9,10.4-2.5c3-0.5,5.7-0.7,8.2-0.7c14.8,0,24.1,3.9,27.7,11.7
	C514.8,106.5,515.8,114.6,515.8,127.7z M489.8,123c0-5.2-2.4-8.4-7.2-9.5h-3.9c-4.3,0-8.3,1.2-12.2,3.5v39.3l9.6,0.5
	c7.4,0,11.8-2.4,13.1-7.2c0.4-1.3,0.6-3,0.6-5.1V123z"/>
<path id="XMLID_52_" class="st0" d="M717.3,114v7.7c0,13.9-1.3,23.6-3.8,29.1c-4,9.4-10.2,16.3-18.5,20.7c-8,4.3-18,6.5-30.1,6.5
	c-12.1,0-22.2-2.2-30.1-6.5c-8.4-4.6-14.6-11.5-18.5-20.7c-2.6-5.7-3.9-15.4-3.9-29.1V114c0-16.7,2.3-28.2,6.8-34.3
	c3.9-6.6,9.1-11.6,15.6-15.1c8-4.4,18.1-6.6,30.1-6.6c12,0,22.1,2.2,30.1,6.6c6.3,3.4,11.5,8.4,15.6,15.1
	C715.1,86.1,717.3,97.5,717.3,114z M664.9,154.1c9.6-0.2,15.6-2.1,18.2-5.7c2.9-2.4,4.4-9.2,4.4-20.5v-18c0-13.2-1.6-20.8-4.9-22.9
	c-3.1-3.2-9-4.9-17.6-5.2c-8.6,0.3-14.5,2.1-17.6,5.2c-3.7,2.3-5.5,9.7-5.5,22.2v18.2c0,11.4,1.6,18.3,4.9,21
	C649.2,152,655.3,153.9,664.9,154.1z"/>
<path id="XMLID_193_" class="st0" d="M1037.6,125.2V177h-21.5l-0.2-0.8c-0.1-0.4-0.2-0.6-0.2-0.8c-0.2-0.5-0.4-1.1-0.5-1.8l-0.2-1.9
	c-7.9,4.1-15.6,6.2-23.2,6.2h-2.2c-7.8,0-13.9-3-18.5-8.9c-3-4.7-4.5-9.9-4.5-15.6v-0.6c0-10.2,3.6-16.9,10.7-20.3
	c2.9-2,10.4-2.9,22.3-2.9h12.2v-2.9c0-5.9-0.8-9.2-2.5-10.1c-1.8-1.4-5.1-2.1-9.8-2.1h-24.3l2.3-21.5h26c16.6,0,26.9,4.1,30.8,12.3
	C1036.4,110.1,1037.6,116.7,1037.6,125.2z M1002.8,146.7c-5,0-8.1,0.5-9.2,1.5c-0.8,0.9-1.2,2.4-1.2,4.5c0,4.6,2.4,6.9,7.1,6.9
	c2.8,0,6.8-1.2,12-3.5v-9.5H1002.8z"/>
<path id="XMLID_203_" class="st0" d="M1108,177.3h-13.2c-2.7,0-5-0.1-6.9-0.2c-5.1-0.4-9.2-1.3-12.5-2.9c-4-1.9-7-4.8-9-8.7
	c-2.3-4.4-3.5-10.3-3.5-17.7l-0.2-33.3h-12.6V92.8h12.6v-21l25.9-4.4v25.4h19.7l-2.7,21.7h-17v31.8c0,0.7,0,1.3,0.1,1.8
	c0.1,1.3,0.3,2.4,0.6,3.3c0.8,2.1,2.4,3.6,4.9,4.4c2,0.8,4.7,1.5,8.2,2c0.6,0.1,1.3,0.2,1.9,0.2c0.6,0.1,1.1,0.1,1.6,0.2l1.8,0.1
	V177.3z"/>
<path id="XMLID_208_" class="st0" d="M1193.4,127.1v15.5c0,16.1-5.8,26.7-17.3,31.8c-5.8,2.4-12.7,3.6-20.6,3.6
	c-17.3,0-28.5-5.6-33.8-16.9c-2.4-4.7-3.6-10.4-3.6-17.2v-18.5c0-16.4,7.1-26.9,21.3-31.5c5.4-1.6,10.5-2.4,15.2-2.4h2.5
	c17.7,0,29.1,6.7,34.2,20.2C1192.8,115.9,1193.4,121,1193.4,127.1z M1167.6,126.2c0-6.7-1.9-10.6-5.7-11.7c-1.1-0.6-2.8-0.9-5-0.9
	h-2.1c-4.6,0-7.9,1.9-9.8,5.6c-0.5,1.6-0.8,3.4-0.8,5.4v21.1c0,7.3,3.8,10.9,11.3,10.9h0.7c6,0,9.7-2.6,11.2-7.9l0.1-2
	c0-0.1,0-0.2,0-0.3L1167.6,126.2z"/>
<path id="XMLID_91_" class="st0" d="M728.3,92.3h21l1.2,5.4c2.3-1.2,4.6-2.2,6.8-3.1c2.7-1.1,5.4-1.8,8-2.3
	c6.5-1.4,12.8-1.1,18.9,0.8c3.9,1.3,7.3,3.5,10.1,6.6c1.1,1.2,2,2.5,2.9,3.9l1,1.7c0.2,0.5,0.5,1,0.8,1.6c1.1,2.9,1.8,6,2.3,9.5
	c0.5,3.9,0.8,9,0.8,15.3v8c0,12.3-1,17-3.1,20.7c-3.3,7.7-12.2,11.5-26.9,11.5c-2.5,0-5-0.2-7.4-0.5l-5.7-1.1
	c-2.2-0.6-3.9-1.1-5.1-1.6v43.5l-25.4-2V92.3z M753.7,146.9c4.3,2.4,8.2,3.5,11.9,3.5l3.7-0.2c4.7-1.1,7.1-4.1,7.1-9.2v-15.9
	c0-2.3-0.2-4-0.6-5.1c-1.5-5.1-5.7-7.1-12.5-6l-2.8,0.5l-4.8,1.4l-2,0.7V146.9z"/>
<path id="XMLID_40_" class="st0" d="M601.6,127.2V142h-46.8v2.5c0,5.7,1.7,9.1,5.2,10.3c2.7,0.8,5.8,1.1,9.2,1.1h2.1
	c9.2,0,14.7-0.3,24.4-2.2h0.2l3.8,20.2c0,0.3-4.4,1.1-13.1,2.5c-5.5,0.6-11.8,0.9-19,0.9c-18.3,0-30.2-6.2-35.5-18.6
	c-2-4.9-3-10-3-15.4v-20c0-14.7,6.2-24.4,18.5-29.3c5.5-1.8,11.3-2.7,17.5-2.7c17.3,0,28.5,5.6,33.6,16.9
	C600.6,112.8,601.6,119,601.6,127.2z M575.8,123.3c0-5.8-1.2-9.3-3.7-10.3c-1.9-1.3-4.2-1.9-6.9-1.9c-6.9,0-10.3,3.2-10.3,9.7v3.9
	h20.9V123.3z"/>
<path id="XMLID_49_" class="st0" d="M888.9,127.2V142h-46.8v2.5c0,5.7,1.7,9.1,5.2,10.3c2.7,0.8,5.8,1.1,9.2,1.1h2.1
	c9.2,0,14.7-0.3,24.4-2.2h0.2l3.8,20.2c0,0.3-4.4,1.1-13.1,2.5c-5.5,0.6-11.8,0.9-19,0.9c-18.3,0-30.2-6.2-35.5-18.6
	c-2-4.9-3-10-3-15.4v-20c0-14.7,6.2-24.4,18.5-29.3c5.5-1.8,11.3-2.7,17.5-2.7c17.3,0,28.5,5.6,33.6,16.9
	C887.9,112.8,888.9,119,888.9,127.2z M863,123.3c0-5.8-1.2-9.3-3.7-10.3c-1.9-1.3-4.2-1.9-6.9-1.9c-6.9,0-10.3,3.2-10.3,9.7v3.9H863
	V123.3z"/>
<path id="XMLID_86_" class="st0" d="M1258.5,96.9l-1.1,20.7c-4.1-0.2-5.5-0.7-10-0.5l-3.3,0.3c-3.1,0.6-8.6,1.6-15.8,4.2V177h-24.9
	V94.8h21.4c0,0,0.9,4.3,1.3,6l5.8-2.2c3.5-1.2,7.7-2.5,12.4-2.6C1253.2,95.7,1255.6,96.2,1258.5,96.9z"/>
<path id="XMLID_94_" class="st0" d="M957,96.9l-1.1,20.7c-4.1-0.2-5.5-0.7-10-0.5l-3.3,0.3c-3.1,0.6-8.6,1.6-15.8,4.2V177h-24.9
	V94.8h21.4c0,0,0.9,4.3,1.3,6l5.8-2.2c3.5-1.2,7.7-2.5,12.4-2.6C951.7,95.7,954.2,96.2,957,96.9z"/>
<path id="XMLID_84_" class="st0" d="M352.3,142.1V94.3l25.9,1.7v50.8c0,5.2,2.5,8.4,7.4,9.5c2.1,0.2,3.8,0.3,5,0.2
	c4-0.3,7-0.4,10.9-1.9l0.4-60.2l25.8,2.3V177h-23c0,0-0.6-2.7-0.8-3.5c0,0-11.8,3-14.1,3.5c-2.9,0.6-5.8,1-8.6,1.1
	c-5.9,0.3-10.7-0.2-14.2-1.6c-4.6-1.8-8.4-5.1-11.5-10C353.3,162.2,352.3,154,352.3,142.1z"/>
</svg>
