<?xml version="1.0" encoding="utf-8"?>
<!-- Generator: Adobe Illustrator 19.0.0, SVG Export Plug-In . SVG Version: 6.00 Build 0)  -->
<svg version="1.1" id="图层_1" xmlns="http://www.w3.org/2000/svg" xmlns:xlink="http://www.w3.org/1999/xlink" x="0px" y="0px"
	 viewBox="0 0 1234.3 232.7" style="enable-background:new 0 0 1234.3 232.7;" xml:space="preserve">
<style type="text/css">
	.st0{fill:#783887;}
	.st1{fill:#622870;}
	.st2{fill:#8B489B;}
	.st3{fill:#FFFFFF;}
</style>
<g id="XMLID_803_">
	<path id="XMLID_829_" class="st0" d="M361.8,180.6l-7.9-78.5l-22.1,78.5h-25.7l-21.6-78.5l-8.1,78.5l-35.5-0.3l17.3-115.9h45.2
		l15.5,55.2l15.7-55.2h44.2l17.6,116.2H361.8z"/>
	<path id="XMLID_826_" class="st0" d="M482.4,131.9v14.7h-46.7l-0.1,2.7c0,5.6,2.2,8.8,5.7,10c2.7,0.8,5.7,1.1,9.1,1.1h2
		c9.1,0,22.3-2,31.9-4h0.2l-3.8,20.7c0,0.3-4.5,2.1-13.1,3.6c-5.4,0.6-11.7,0.9-18.8,0.9c-18.2,0-29.9-6.1-35.2-18.4
		c-2-4.8-3.8-9.9-3.8-15.2v-19.8c0-14.5,6.9-24.2,19.1-29c5.4-1.8,11.2-2.6,17.3-2.6c17.1,0,28.2,5.6,33.3,16.7
		C481.4,117.7,482.4,123.9,482.4,131.9z M457.9,128.1c0-5.7-1.7-9.6-4.2-10.7c-1.9-1.3-4.7-1.5-7.4-1.5c-6.8,0-10.2,3.2-10.2,9.6
		l-0.4,3.9h22.2V128.1z"/>
	<path id="XMLID_823_" class="st0" d="M639.9,131.9v14.7h-46.7l-0.1,2.7c0,5.6,2.2,8.8,5.7,10c2.7,0.8,5.7,1.1,9.1,1.1h2
		c9.1,0,22.3-2,31.9-4h0.2l-3.8,20.7c0,0.3-4.5,2.1-13.1,3.6c-5.4,0.6-11.7,0.9-18.8,0.9c-18.2,0-29.9-6.1-35.2-18.4
		c-2-4.8-3.8-9.9-3.8-15.2v-19.8c0-14.5,6.9-24.2,19.1-29c5.4-1.8,11.2-2.6,17.3-2.6c17.1,0,28.2,5.6,33.3,16.7
		C638.9,117.7,639.9,123.9,639.9,131.9z M615.4,128.1c0-5.7-1.7-9.6-4.2-10.7c-1.9-1.3-4.7-1.5-7.4-1.5c-6.8,0-10.2,3.2-10.2,9.6
		l-0.4,3.9h22.2V128.1z"/>
	<path id="XMLID_820_" class="st0" d="M1074.6,131.9v14.7h-46.7l-0.1,2.7c0,5.6,2.2,8.8,5.7,10c2.7,0.8,5.7,1.1,9.1,1.1h2
		c9.1,0,22.3-2,31.9-4h0.2l-3.8,20.7c0,0.3-4.5,2.1-13.1,3.6c-5.4,0.6-11.7,0.9-18.8,0.9c-18.2,0-29.9-6.1-35.2-18.4
		c-2-4.8-3.8-9.9-3.8-15.2v-19.8c0-14.5,6.9-24.2,19.1-29c5.4-1.8,11.2-2.6,17.3-2.6c17.1,0,28.2,5.6,33.3,16.7
		C1073.6,117.7,1074.6,123.9,1074.6,131.9z M1050.1,128.1c0-5.7-1.7-9.6-4.2-10.7c-1.9-1.3-4.7-1.5-7.4-1.5
		c-6.8,0-10.2,3.2-10.2,9.6l-0.4,3.9h22.2V128.1z"/>
	<path id="XMLID_817_" class="st0" d="M1232,131.9v14.7h-46.7l-0.1,2.7c0,5.6,2.2,8.8,5.7,10c2.7,0.8,5.7,1.1,9.1,1.1h2
		c9.1,0,22.3-2,31.9-4h0.2l-3.8,20.7c0,0.3-4.5,2.1-13.1,3.6c-5.4,0.6-11.7,0.9-18.8,0.9c-18.2,0-29.9-6.1-35.2-18.4
		c-2-4.8-3.8-9.9-3.8-15.2v-19.8c0-14.5,6.9-24.2,19.1-29c5.4-1.8,11.2-2.6,17.3-2.6c17.1,0,28.2,5.6,33.3,16.7
		C1231.1,117.7,1232,123.9,1232,131.9z M1207.6,128.1c0-5.7-1.7-9.6-4.2-10.7c-1.9-1.3-4.7-1.5-7.4-1.5c-6.8,0-10.2,3.2-10.2,9.6
		l-0.4,3.9h22.2V128.1z"/>
	<path id="XMLID_815_" class="st0" d="M557,180.9h-15c-2.6,0-4.9-0.1-6.7-0.2c-5-0.4-9.1-1.3-12.3-2.8c-3.9-1.9-6.8-4.7-8.9-8.5
		c-2.3-4.3-3.4-10.1-3.4-17.4l-0.2-32.7h-12.4V98h12.4V81.5l12.4-0.3l13-1.6V98h19.4l-2.6,21.3H536v31.2c0,0.7,0,1.3,0.1,1.8
		c0.1,1.3,0.3,2.4,0.6,3.3c0.8,2.1,2.4,3.5,4.8,4.3c1.9,0.8,13.4,0.7,13.4,0.7L557,180.9z"/>
	<path id="XMLID_813_" class="st0" d="M714.3,98.1l-0.4,19.7c-2.2-0.1-8.4-0.1-14.8,1.4c-5.8,1.3-11.8,4-15.2,5.3v56.1h-25.3V97.4
		h23.2c0,0-0.6,4.3-0.1,6.1l5.9-2.2c3.5-1.2,7.3-2.1,12.1-2.7C706.8,97.7,711.1,98,714.3,98.1z"/>
	<path id="XMLID_811_" class="st0" d="M1150.9,98.1l-0.4,19.7c-2.2-0.1-8.4-0.1-14.8,1.4c-5.8,1.3-11.8,4-15.2,5.3v56.1h-25.3V97.4
		h23.2c0,0-0.6,4.3-0.1,6.1l5.9-2.2c3.5-1.2,7.3-2.1,12.1-2.7C1143.4,97.7,1147.7,98,1150.9,98.1z"/>
	<path id="XMLID_809_" class="st0" d="M763.6,184.1c-6,0-12.5-0.4-19.6-1.1c-2.7-0.3-5.5-0.7-8.4-1.1l-11.1-1.1l0.2-28.6l17.4,2.7
		c0,0,6.9,1,10,1.3c3.7,0.4,7.1,0.5,10.1,0.5c11,0,17.3-2.5,19.1-7.5c1-2.1,0.9-4.1-0.2-6.1c-1.1-2.2-3.3-4-6.7-5.6
		c-1.5-0.7-3.3-1.3-5.5-2l-6.5-2c-2.9-0.7-5.4-1.4-7.7-2.1c-2.9-0.9-5.6-1.9-8-2.9c-6-2.5-10.7-5.4-14-8.8
		c-3.2-3.4-5.2-7.5-6.1-12.4c-0.7-3.5-0.7-7.4-0.2-11.9c1.4-12.8,6.8-21.6,16.4-26.4c3.6-1.9,7.9-3.3,12.9-4.2
		c2-0.3,4.2-0.6,6.7-0.8l6.5-0.5h4.4c5,0,10.5,0.3,16.5,0.9l7.3,0.8l8.5,1.1l0.2,25.1c-3.3-0.8-7.4-1.5-12.4-2.2
		c-6.4-0.9-12.2-1.4-17.4-1.4c-11.5,0-15.5,2.4-17.5,7.6c-0.8,2.2-0.8,4.3-0.6,6.5c0.3,2.5,0.1,3.2,5.2,5.9c1.6,0.7,3.5,1.5,5.9,2.3
		l15,4.5c2.9,0.9,5.4,1.8,7.7,2.8c5.5,2.3,9.7,5,12.5,8c3.3,3.3,5.5,7.5,6.4,12.5c0.7,3.6,0.7,7.5,0.2,11.7
		c-1.4,12.7-7.7,24.1-17.3,29c-3.5,1.9-7.8,3.3-12.9,4.1c-2,0.3-4.2,0.6-6.7,0.8l-5.8,0.4H763.6z"/>
	<path id="XMLID_806_" class="st0" d="M827.3,97.7h23l-0.7,5.4c2.3-1.2,4.6-2.2,6.8-3.1c2.7-1.1,5.4-1.8,8.1-2.3
		c6.6-1.4,12.9-1.1,19,0.8c3.9,1.3,7.3,3.5,10.1,6.7c1.1,1.2,2,2.5,2.9,3.9l1,1.7c0.3,0.5,0.5,1,0.8,1.6c1.1,2.9,2.2,6.1,2.6,9.6
		c0.6,3.9,1.1,8.9,1.1,15.3v4.7c0,12.4-0.7,19-3.1,23.6c-3.3,7.7-11.2,11.6-26.4,12.1c-2.1,0.1-5.3,0-8.7-0.1l-5.7-0.2
		c-2.1,0-3.6-0.1-5.2-0.1v35.8l-25.6,1.7V97.7z M852.9,156.1c4.9,0.9,7.6,0.8,11.8,0.6l4.3-0.5c4.7-1.1,6.8-4.3,6.8-9.4v-15.9
		c0-2.3-0.2-4-0.6-5.1c-1.5-5.1-5.7-7.2-12.6-6.1l-2.8,0.5l-4.8,1.4l-2,0.7V156.1z"/>
	<path id="XMLID_804_" class="st0" d="M990.6,135.5v45.2h-25.7v-49.1c0-3.1-1.8-7.6-5.4-9.7c-2.6-1.5-6.9-1.3-8.3-1
		c-3.4,0.6-7.3,2.6-9,4.3v55.6h-25.6V61.2l25.6-0.2v42.3c3.1-1.1,6.5-2.4,10.1-2.9c2.9-0.5,6-1,8.5-1c14.7,0,22.5,4.2,26.1,11.8
		C988.7,114.1,990.6,122.5,990.6,135.5z"/>
</g>
<g id="XMLID_799_">
	<path id="XMLID_800_" class="st0" d="M100.7,3.1l97.9,56.5v113l-97.9,56.5L2.8,172.6v-113L100.7,3.1 M100.7,0L0.1,58.1v116.1
		l100.6,58.1l100.6-58.1V58.1L100.7,0L100.7,0z"/>
</g>
<g id="XMLID_796_">
	<polygon id="XMLID_64_" class="st1" points="102.3,117 187.1,68.1 187.1,166 102.3,214.9 	"/>
</g>
<polygon id="XMLID_795_" class="st2" points="15.9,65.3 100.7,16.4 185.5,65.3 100.7,114.3 "/>
<g id="XMLID_792_">
	<polygon id="XMLID_65_" class="st0" points="14.3,166 14.3,68.1 99.1,117.1 99.1,214.9 	"/>
</g>
<g id="XMLID_789_">
	<path id="XMLID_790_" class="st3" d="M72.5,179.1l0-34.5L60,171.8l-10.7-6.3l-5.7-37.8L37,158.3l-14.7-8.8l11.9-43.9l18.8,11
		l4.2,26.7l8.8-19.1l18.4,10.8l2.6,52.5L72.5,179.1z"/>
</g>
<g id="XMLID_786_">
	<path id="XMLID_787_" class="st3" d="M145.9,176.8c-3,1.2-6.3,2.3-9.8,3.4c-1.4,0.4-2.8,0.8-4.2,1.2l-5.6,1.7l-0.3-14.2l8.8-2.2
		c0,0,3.5-0.9,5-1.4c1.9-0.6,3.6-1.2,5.1-1.8c5.5-2.2,8.7-4.7,9.4-7.6c0.4-1.2,0.4-2.2-0.2-3c-0.6-0.9-1.7-1.3-3.5-1.4
		c-0.7,0-1.7,0-2.8,0.1l-3.3,0.3c-1.5,0.2-2.8,0.4-3.9,0.5c-1.5,0.1-2.8,0.2-4.1,0.2c-3,0-5.4-0.5-7.1-1.5c-1.6-1-2.7-2.7-3.3-4.9
		c-0.4-1.6-0.5-3.5-0.3-5.8c0.5-6.6,3.1-12.1,7.8-16.4c1.8-1.7,3.9-3.2,6.4-4.7c1-0.5,2.1-1.1,3.4-1.7l3.3-1.5l2.2-0.9
		c2.5-1,5.3-2,8.3-2.9l3.7-1.1l4.3-1.2l0.5,12.4c-1.7,0.3-3.7,0.7-6.2,1.4c-3.2,0.8-6.1,1.8-8.7,2.8c-5.8,2.3-7.7,4.3-8.6,7.3
		c-0.3,1.2-0.3,2.3-0.2,3.3c0.2,1.2,0.1,1.6,2.7,1.8c0.8,0,1.8,0,3-0.1l7.6-0.8c1.5-0.1,2.8-0.2,3.9-0.2c2.8,0,4.9,0.5,6.4,1.5
		c1.7,1,2.9,2.6,3.4,4.9c0.4,1.6,0.5,3.5,0.3,5.7c-0.5,6.6-3.5,13.5-8.2,17.9c-1.7,1.7-3.9,3.2-6.4,4.6c-1,0.5-2.1,1.1-3.4,1.7
		l-2.9,1.4L145.9,176.8z"/>
</g>
</svg>
