<?xml version="1.0" encoding="utf-8"?>
<!-- Generator: Adobe Illustrator 23.0.0, SVG Export Plug-In . SVG Version: 6.00 Build 0)  -->
<svg version="1.1" id="图层_1" xmlns="http://www.w3.org/2000/svg" xmlns:xlink="http://www.w3.org/1999/xlink" x="0px" y="0px"
	 viewBox="0 0 1234.3 232.7" style="enable-background:new 0 0 1234.3 232.7;" xml:space="preserve">
<style type="text/css">
	.st0{fill:#0A7BE0;}
	.st1{fill-rule:evenodd;clip-rule:evenodd;fill:#0A7BE0;}
	.st2{fill:#53BAF9;}
	.st3{fill:#2DAAF7;}
</style>
<g>
	<path id="XMLID_997_" class="st0" d="M257.4,3.2l97.9,56.5v113.1l-97.9,56.5l-97.9-56.5V59.7L257.4,3.2 M257.4,0.1L156.8,58.2
		v116.2l100.6,58.1L358,174.4V58.2L257.4,0.1L257.4,0.1z"/>
	<g id="XMLID_963_">
		<path id="XMLID_995_" class="st0" d="M776.6,104.2h31.8l-4.1,22.1h-27.7v26.1h38l1.7,23.9h-70.9V55h70.9l-1.7,23.5h-38V104.2z"/>
		<path id="XMLID_992_" class="st0" d="M580.5,122.9v53.3h-23.3l-0.1-5.4c-8.1,4.2-16.1,6.3-23.9,6.3h-2.3c-8,0-14.3-3.1-19-9.2
			c-3.1-4.8-4.7-10.2-4.7-16.1v-0.6c0-10.5,3.7-17.4,11-20.9c3-2,10.7-3,22.9-3h12.5v-2.9c0-6-0.9-9.5-2.6-10.4
			c-1.9-1.4-5.3-2.1-10.1-2.1h-25l0.4-21.3l28.8-0.8c17.1,0,27.6,4.2,31.7,12.7C579.4,107.4,580.5,114.2,580.5,122.9z M535.7,145
			c-0.8,0.9-1.6,4-1.6,6.2c0,4.8,2.4,7.1,7.3,7.1c2.9,0,7-1.2,12.4-3.6v-11.6C553.7,143.2,538.6,141.6,535.7,145z"/>
		<path id="XMLID_989_" class="st0" d="M735.9,122.9v53.3h-23.3l-0.1-5.4c-8.1,4.2-16.1,6.3-23.9,6.3h-2.3c-8,0-14.3-3.1-19-9.2
			c-3.1-4.8-4.7-10.2-4.7-16.1v-0.6c0-10.5,3.7-17.4,11-20.9c3-2,10.7-3,22.9-3H709v-2.9c0-6-0.9-9.5-2.6-10.4
			c-1.9-1.4-5.3-2.1-10.1-2.1h-25l0.4-21.3l28.8-0.8c17.1,0,27.6,4.2,31.7,12.7C734.7,107.4,735.9,114.2,735.9,122.9z M691.1,145
			c-0.8,0.9-1.6,4-1.6,6.2c0,4.8,2.4,7.1,7.3,7.1c2.9,0,7-1.2,12.4-3.6v-11.6C709.1,143.2,694,141.6,691.1,145z"/>
		<path id="XMLID_986_" class="st0" d="M898.4,122.9v53.3h-23.3l-0.1-5.4c-8.1,4.2-16.1,6.3-23.9,6.3h-2.2c-8,0-14.3-3.1-19-9.2
			c-3.1-4.8-4.7-10.2-4.7-16.1v-0.6c0-10.5,3.7-17.4,11-20.9c3-2,10.7-3,22.9-3h12.5v-2.9c0-6-0.9-9.5-2.6-10.4
			c-1.9-1.4-5.3-2.1-10.1-2.1h-25l0.4-21.3l28.8-0.8c17.1,0,27.6,4.2,31.7,12.7C897.3,107.4,898.4,114.2,898.4,122.9z M853.6,145
			c-0.8,0.9-1.6,4-1.6,6.2c0,4.8,2.4,7.1,7.3,7.1c2.9,0,7-1.2,12.4-3.6v-11.6C871.6,143.2,856.5,141.6,853.6,145z"/>
		<g id="XMLID_983_">
			<path id="XMLID_984_" class="st0" d="M650.7,176.4h-13.5c-2.7,0-5.1-0.1-7-0.2c-5.2-0.4-9.5-1.3-12.8-2.9c-4-1.9-7.1-4.9-9.2-8.9
				c-2.4-4.5-3.5-10.6-3.5-18.1l-0.2-34.1h-12.9V90h12.9V62.4l26.5,5.1V90h20.2l-2.8,22.2H631v32.6c0,0.7,0,1.4,0.1,1.9
				c0.1,1.4,0.3,2.5,0.6,3.4c0.8,2.2,2.5,3.7,5,4.5c2,0.8,4.8,1.5,8.4,2c0.6,0.1,1.3,0.2,2,0.2c0.6,0.1,1.1,0.1,1.7,0.2l1.9,0.1
				V176.4L650.7,176.4z"/>
		</g>
		<path id="XMLID_980_" class="st0" d="M1065.7,125.5v15.3h-48.8l-0.1,2.8c0,5.8,2.3,9.2,5.9,10.5c2.8,0.8,5.9,1.2,9.5,1.2h2.1
			c9.5,0,23.3-2.1,33.3-4.2h0.2l-4,21.6c0,0.3-4.7,2.2-13.7,3.7c-5.7,0.6-12.2,0.9-19.6,0.9c-18.9,0-31.2-6.4-36.7-19.2
			c-2.1-5.1-3.9-10.3-3.9-15.8v-20.7c0-15.2,7.2-25.3,20-30.3c5.6-1.8,11.7-2.8,18.1-2.8c17.8,0,29.4,5.8,34.7,17.4
			C1064.6,110.7,1065.7,117.1,1065.7,125.5z M1040.1,121.5c0-6-1.8-10-4.4-11.1c-1.9-1.3-5-1.5-7.7-1.5c-7.1,0-10.7,3.3-10.7,10
			l-0.4,4h23.2L1040.1,121.5L1040.1,121.5z"/>
		<g id="XMLID_966_">
			<g>
				<path class="st1" d="M443.3,53.7h-46.8v122.6h46.8c29.8,0,54-20.2,54-45.1V98.9C497.3,74,473.1,53.8,443.3,53.7z M467.2,132.3
					c0,11.1-10.7,20-23.9,20h-15.6V77.8h15.6c13.2,0,23.9,9,23.9,20V132.3z"/>
			</g>
		</g>
		<path id="XMLID_964_" class="st0" d="M941.7,178.8c-5,0-10.4-0.3-16.3-0.9c-2.3-0.2-4.6-0.5-7-0.8l-5.6-0.8l-3.1-23.4l6,2.3
			l7.4,1.9c2.9,0.4,5.7,0.7,8.3,1c3.1,0.3,5.9,0.4,8.5,0.4c9.2,0,14.5-0.2,15.9-4c0.8-1.6,0.8-5.8-0.1-7.3c-0.9-1.6-2.8-3-5.6-4.2
			c-1.2-0.5-2.8-1-4.6-1.5l-5.4-1.5c-2.4-0.5-4.5-1.1-6.4-1.6c-2.4-0.7-4.7-1.4-6.7-2.2c-5-1.9-8.9-4.1-11.7-6.6
			c-2.7-2.5-4.4-5.7-5.1-9.3c-0.5-2.6-0.6-5.6-0.2-8.9c1.1-9.6,5.7-16.3,13.7-19.9c3-1.4,6.6-2.5,10.8-3.1c1.6-0.2,3.5-0.4,5.6-0.6
			l5.4-0.3h3.7c4.2,0,8.8,0.2,13.8,0.7l6.1,0.6l5.2,0.7l2.1,21c-2.7-0.8-6.2-1.1-10.3-1.6c-5.3-0.7-10.3-0.6-14.6-0.6
			c-9.6,0-15.2-0.5-16.9,3.4c-0.6,1.6-0.6,3.2,0.1,4.7c0.9,1.7,2.9,3.2,6.1,4.5c1.3,0.5,2.9,1.1,4.9,1.7l12.5,3.4
			c2.4,0.7,4.5,1.4,6.4,2.1c4.6,1.7,8.1,3.8,10.4,6c2.8,2.5,4.6,5.6,5.4,9.4c0.5,2.7,0.6,8.4,0.2,11.5c-1.1,9.6-5.7,16.2-13.7,19.9
			c-2.9,1.4-6.5,2.5-10.8,3.1c-1.6,0.2-3.5,0.4-5.6,0.6l-4.9,0.3L941.7,178.8L941.7,178.8z"/>
	</g>
	<path id="XMLID_960_" class="st0" d="M257.4,37.6l68.1,39.3v78.6l-68.1,39.3l-68.1-39.3V76.9L257.4,37.6 M257.4,16.5L171,66.4v99.8
		l86.4,49.8l86.4-49.9V66.4L257.4,16.5L257.4,16.5z"/>
	<g id="XMLID_958_">
		<path id="XMLID_959_" class="st2" d="M215.6,117.3c-2.7,0-5.4-1.4-6.9-4c-2.2-3.8-0.9-8.7,2.9-10.8l28.2-16.2
			c3.8-2.2,8.7-0.9,10.8,2.9s0.9,8.7-2.9,10.8l-28.2,16.2C218.3,116.9,216.9,117.3,215.6,117.3z"/>
	</g>
	<g id="XMLID_956_">
		<path id="XMLID_957_" class="st2" d="M265.4,88.6c-2.7,0-5.4-1.4-6.9-4c-2.2-3.8-0.9-8.7,2.9-10.8l10.3-5.9
			c3.8-2.2,8.7-0.9,10.8,2.9c2.2,3.8,0.9,8.7-2.9,10.8l-10.3,5.9C268.1,88.2,266.7,88.6,265.4,88.6z"/>
	</g>
	<g id="XMLID_875_">
		<path id="XMLID_876_" class="st3" d="M227.3,141.5c-2.7,0-5.4-1.4-6.9-4c-2.2-3.8-0.9-8.7,2.9-10.9l0.3-0.2
			c3.8-2.2,8.7-0.9,10.9,2.9c2.2,3.8,0.9,8.7-2.9,10.9l-0.3,0.2C230,141.2,228.7,141.5,227.3,141.5z"/>
	</g>
	<g id="XMLID_780_">
		<path id="XMLID_874_" class="st3" d="M249,129.3c-2.7,0-5.4-1.4-6.9-3.9c-2.2-3.8-0.9-8.7,2.9-10.9l38.5-22.4
			c3.8-2.2,8.7-0.9,10.9,2.9c2.2,3.8,0.9,8.7-2.9,10.9L253,128.3C251.7,128.9,250.3,129.3,249,129.3z"/>
	</g>
	<g id="XMLID_778_">
		<path id="XMLID_779_" class="st0" d="M239.1,165.8c-2.7,0-5.4-1.4-6.9-4c-2.2-3.8-0.9-8.7,2.9-10.8l60.1-34.7
			c3.8-2.2,8.7-0.9,10.8,2.9c2.2,3.8,0.9,8.7-2.9,10.8L243,164.7C241.8,165.4,240.4,165.8,239.1,165.8z"/>
	</g>
</g>
</svg>
