<?xml version="1.0" encoding="utf-8"?>
<!-- Generator: Adobe Illustrator 19.0.0, SVG Export Plug-In . SVG Version: 6.00 Build 0)  -->
<svg version="1.1" id="图层_1" xmlns="http://www.w3.org/2000/svg" xmlns:xlink="http://www.w3.org/1999/xlink" x="0px" y="0px"
	 viewBox="0 0 1134.9 228.8" style="enable-background:new 0 0 1134.9 228.8;" xml:space="preserve">
<style type="text/css">
	.st0{fill:#2B937C;}
</style>
<path id="XMLID_127_" class="st0" d="M93.9,20.8c-7.5,4.3-15.1,8.2-22.7,12.4c-8.6,4.8-17.1,9.6-26.7,15C64.9,61.3,84.4,73.8,105,87
	c-4,2.3-7.2,4-10.1,6.1c-3,2.1-5.5,2.1-8.7,0.1c-16.5-10-33.3-19.5-49.6-29.9c-6.9-4.4-12.3-5.3-19.2-0.4
	c-6.7,4.7-7.2,10.2-0.3,14.6c3.4,2.1,6.8,4.2,10.1,6.3C45.2,95.2,63.5,106,81,118c10.9,7.5,20.9,7.2,31.5,0.8
	c9.9-5.9,19.7-11.8,29.6-17.8c3.6-2.2,7.2-4.5,11.5-7.3c-19.3-12.4-37.9-24.3-57.1-36.6c3.3-2.3,6-4,8.4-6c3.2-2.7,6-2.9,9.8-0.6
	c16.1,9.4,32.4,18.5,48.7,27.6c11,6.1,11,6,19.5-3.2c3.3-3.6,2.5-8.7-1.8-11c-26-14.3-52-28.6-77.9-43.1
	C99.8,18.8,97.2,19,93.9,20.8z"/>
<path id="XMLID_128_" class="st0" d="M111.5,136c-9,4.7-18.5,5.1-27.7-0.4C62.5,122.7,41.1,109.9,19.8,97c-2.1-1.2-4.2-2.4-7.2-4.2
	c0,8.2,0.3,15.4-0.1,22.6c-0.3,4.3,1.3,6.7,4.9,8.7c23,13.2,45.9,26.6,68.9,39.8c7.7,4.4,16.3,4.7,23.8,0.8
	c14.8-7.6,57.7-34.1,72.1-42.5c1.4-0.8,3.1-2.5,3.2-3.8c0.3-8.4,0.1-16.9,0.1-25.9c-2.3,1.3-4.4,2.5-6.4,3.6
	C166.1,103.6,124.7,129.1,111.5,136z"/>
<path id="XMLID_129_" class="st0" d="M127,165.7c-6.4,3.5-12.8,7-19.4,10c-7.3,3.2-14.8,3.2-22-1c-6-3.6-12.2-6.9-18.2-10.5
	C56.7,157.7,46,151,35.3,144.5c-7.2-4.4-14.6-8.6-22.6-13.3c0,9.1-0.1,17.3,0.1,25.4c0,1.3,1.2,3,2.3,3.7
	c23.6,14.1,47.2,28.4,71,42.1c7.9,4.5,16.8,4.9,25.1,0.3c14.3-7.9,58.7-34.4,72.8-42.6c1.2-0.7,2.9-2.2,2.9-3.4
	c0.3-8.3,0.1-16.7,0.1-25.5c-0.8,0.2-2,0.3-2.9,0.8C175.2,137.1,136,160.7,127,165.7z"/>
<path id="XMLID_132_" class="st0" d="M101.8,1.5l-0.6-0.4L1,59.2l-0.6,0.3v107.5l100.8,61.7l100.2-61.3l0.6-0.4V59.6L101.8,1.5z
	 M199.6,165.8l-98.4,60.2L2.8,165.8V60.9l98.4-57l98.4,57V165.8z"/>
<g id="XMLID_139_">
	<path id="XMLID_141_" class="st0" d="M299.3,130.3c0,11.3-0.2,23-4,29.3c-2.9,4.9-7.6,9.2-14.3,12.7c-9.1,4.6-21.7,3.9-34.3,3.9
		h-4.7l2.6-26.4c3.3,0,16.3-0.4,18.4-1.5c5.5-2.8,6.3-6.5,6.3-14V53.4l29.9-2.4V130.3z"/>
	<path id="XMLID_145_" class="st0" d="M530,126.5v48.7h-25.9v-53.4c0-5.2-2.4-8.3-7.2-9.4c-2.6-0.5-5.5-0.4-8.6,0.4
		c-2.5,0.7-5,1.7-7.5,3v59.3h-25.9v-53.4c0-5.2-2.4-8.3-7.2-9.4c-2.1-0.2-3.8-0.3-5-0.2c-2,0.3-3.7,0.6-5,1
		c-2.1,0.6-4.1,1.5-5.9,2.6h-0.2v59.3H406V91.6h23.2c0,0,0.1,4.8,0.3,5.5l0.9-0.5c0.6-0.3,1.1-0.6,1.5-0.8c1.6-0.8,3.2-1.4,4.8-2.1
		c2.2-0.8,4.5-1.5,6.9-2c2.8-0.6,5.7-1,8.5-1.1h1.4c3.8-0.1,8.1,0.4,10.6,1.8c4.9,2.6,5.6,4.6,8.2,6.7c0.3,0,0.4,0.1,0.5,0.2
		c2.2-0.8,5.4-3.6,6.9-4.4c2.6-1.3,5.5-2.6,7.5-3.1c5-1.2,7.4-1.3,11.9-1.3c14.9,0,24,3.9,27.3,11.7
		C528.9,105.5,530,113.6,530,126.5z"/>
	<path id="XMLID_150_" class="st0" d="M675.2,177.6c-6,0-12.6-0.4-19.7-1.1c-2.7-0.3-5.6-0.7-8.5-1.1l-6.8-1.1l-3.8-29.1l7.3,3.1
		l9,2.5c3.6,0.6,6.9,1,10.1,1.3c3.8,0.4,7.2,0.5,10.2,0.5c11.1,0,17.5-2.5,19.2-7.5c1-2.1,0.9-7.8-0.2-9.8c-1.1-2.2-3.3-4.1-6.8-5.6
		c-1.5-0.7-3.3-1.3-5.6-2.1l-6.6-2c-2.9-0.7-5.5-1.4-7.8-2.1c-2.9-0.9-5.6-1.9-8.1-2.9c-6-2.5-10.7-5.5-14.1-8.8
		c-3.2-3.4-5.3-7.6-6.2-12.5c-0.7-3.5-0.7-7.5-0.2-12c1.4-12.9,6.9-21.8,16.5-26.6c3.6-1.9,8-3.3,13-4.2c2-0.3,4.2-0.6,6.8-0.8
		l6.6-0.5h4.4c5,0,10.6,0.3,16.6,0.9l7.4,0.8l6.2,0.9l2.9,28.5c-2.6-1.9-7.9-4.5-12.9-5.2c-6.5-0.9-12.3-1.4-17.5-1.4
		c-11.6,0-18.4,2.6-20.4,7.9c-0.8,2.2-0.7,4.3,0.2,6.3c1.1,2.3,3.6,4.3,7.3,6c1.6,0.7,3.6,1.5,5.9,2.3l15.1,4.5
		c2.9,0.9,5.5,1.9,7.8,2.8c5.5,2.3,9.7,5,12.6,8.1c3.4,3.4,5.5,7.5,6.5,12.6c0.7,3.6,0.7,11.2,0.2,15.4
		c-1.4,12.8-6.9,21.7-16.5,26.6c-3.6,1.9-7.9,3.3-13,4.1c-2,0.3-4.2,0.6-6.8,0.8l-5.9,0.4H675.2z"/>
	<path id="XMLID_157_" class="st0" d="M950.9,175.2h-32.8l-29.5-83.2h30.5l15.3,60.8l14.8-60.8h30.3L950.9,175.2z"/>
</g>
<path id="XMLID_164_" class="st0" d="M545.6,91.4h21l1.2,5.4c2.3-1.2,4.6-2.2,6.8-3.1c2.7-1.1,5.4-1.8,8-2.3
	c6.5-1.4,12.8-1.1,18.9,0.8c3.9,1.3,7.3,3.5,10.1,6.6c1.1,1.2,2,2.5,2.9,3.9l1,1.7c0.2,0.5,0.5,1,0.8,1.6c1.1,2.9,1.8,6,2.3,9.5
	c0.5,3.9,0.8,9,0.8,15.3v8c0,12.3-1,17-3.1,20.7c-3.3,7.7-12.2,11.5-26.9,11.5c-2.5,0-5-0.2-7.4-0.5l-5.7-1.1
	c-2.2-0.6-3.9-1.1-5.1-1.6v43.5l-25.4-2V91.4z M570.9,146c4.3,2.4,8.2,3.5,11.9,3.5l3.7-0.2c4.7-1.1,7.1-4.1,7.1-9.2v-15.9
	c0-2.3-0.2-4-0.6-5.1c-1.5-5.1-5.7-7.1-12.5-6l-2.8,0.5l-4.8,1.4l-2,0.7V146z"/>
<path id="XMLID_14_" class="st0" d="M811.7,126.3v14.8h-46.8v2.5c0,5.7,1.7,9.1,5.2,10.3c2.7,0.8,5.8,1.1,9.2,1.1h2.1
	c9.2,0,14.7-0.3,24.4-2.2h0.2l3.8,20.2c0,0.3-4.4,1.1-13.1,2.5c-5.5,0.6-11.8,0.9-19,0.9c-18.3,0-30.2-6.2-35.5-18.6
	c-2-4.9-3-10-3-15.4v-20c0-14.7,6.2-24.4,18.5-29.3c5.5-1.8,11.3-2.7,17.5-2.7c17.3,0,28.5,5.6,33.6,16.9
	C810.7,111.9,811.7,118.1,811.7,126.3z M785.9,122.4c0-5.8-1.2-9.3-3.7-10.3c-1.9-1.3-4.2-1.9-6.9-1.9c-6.9,0-10.3,3.2-10.3,9.7v3.9
	h20.9V122.4z"/>
<path id="XMLID_7_" class="st0" d="M1062.3,126.3v14.8h-46.8v2.5c0,5.7,1.7,9.1,5.2,10.3c2.7,0.8,5.8,1.1,9.2,1.1h2.1
	c9.2,0,14.7-0.3,24.4-2.2h0.2l3.8,20.2c0,0.3-4.4,1.1-13.1,2.5c-5.5,0.6-11.8,0.9-19,0.9c-18.3,0-30.2-6.2-35.5-18.6
	c-2-4.9-3-10-3-15.4v-20c0-14.7,6.2-24.4,18.5-29.3c5.5-1.8,11.3-2.7,17.5-2.7c17.3,0,28.5,5.6,33.6,16.9
	C1061.3,111.9,1062.3,118.1,1062.3,126.3z M1036.5,122.4c0-5.8-1.2-9.3-3.7-10.3c-1.9-1.3-4.2-1.9-6.9-1.9c-6.9,0-10.3,3.2-10.3,9.7
	v3.9h20.9V122.4z"/>
<path id="XMLID_224_" class="st0" d="M882.2,93.9l-1.1,20.7c-4.1-0.2-5.5-0.7-10-0.5l-3.3,0.3c-3.1,0.6-8.6,1.6-15.8,4.2v55.3h-24.9
	V91.9h21.4c0,0,0.9,4.3,1.3,6l5.8-2.2c3.5-1.2,7.7-2.5,12.4-2.6C876.9,92.8,879.4,93.3,882.2,93.9z"/>
<path id="XMLID_89_" class="st0" d="M1134,93.9l-1.1,20.7c-4.1-0.2-5.5-0.7-10-0.5l-3.3,0.3c-3.1,0.6-8.6,1.6-15.8,4.2v55.3h-24.9
	V91.9h21.4c0,0,0.9,4.3,1.3,6l5.8-2.2c3.5-1.2,7.7-2.5,12.4-2.6C1128.7,92.8,1131.2,93.3,1134,93.9z"/>
<path id="XMLID_228_" class="st0" d="M314.5,139.7V91.9l25.9,1.7v50.8c0,5.2,2.5,8.4,7.4,9.5c2.1,0.2,3.8,0.3,5,0.2
	c4-0.3,7-0.4,10.9-1.9l0.4-60.2l25.8,2.3v80.4h-23c0,0-0.6-2.7-0.8-3.5c0,0-11.8,3-14.1,3.5c-2.9,0.6-5.8,1-8.6,1.1
	c-5.9,0.3-10.7-0.2-14.2-1.6c-4.6-1.8-8.4-5.1-11.5-10C315.5,159.8,314.5,151.7,314.5,139.7z"/>
</svg>
