<?xml version="1.0" encoding="utf-8"?>
<!-- Generator: Adobe Illustrator 19.0.0, SVG Export Plug-In . SVG Version: 6.00 Build 0)  -->
<svg version="1.1" id="图层_1" xmlns="http://www.w3.org/2000/svg" xmlns:xlink="http://www.w3.org/1999/xlink" x="0px" y="0px"
	 viewBox="149 183.5 1137.1 228.8" style="enable-background:new 149 183.5 1137.1 228.8;" xml:space="preserve">
<style type="text/css">
	.st0{fill:#0A7BE0;}
	.st1{fill:#C1C1C1;}
</style>
<g>
	<g id="XMLID_466_">
		<polygon id="XMLID_472_" class="st0" points="304.7,339.1 243.1,374.6 243.1,388.6 316.8,346.1 		"/>
		<polygon id="XMLID_471_" class="st0" points="161.2,341.3 173.3,334.3 173.3,263.2 161.2,256.2 		"/>
		<polygon id="XMLID_470_" class="st0" points="237.6,388.6 237.6,374.6 176.1,339.1 163.9,346.1 		"/>
		<polygon id="XMLID_469_" class="st0" points="243.1,208.9 243.1,222.9 304.7,258.4 316.8,251.4 		"/>
		<polygon id="XMLID_468_" class="st0" points="176.1,258.4 237.6,222.9 237.6,208.9 163.9,251.4 		"/>
		<polygon id="XMLID_467_" class="st0" points="319.6,256.2 307.4,263.2 307.4,334.3 319.6,341.3 		"/>
	</g>
	<g id="XMLID_32_">
		<path id="XMLID_464_" class="st0" d="M415.7,334.6c4.5,0,13.2,0.1,22.8-1.5v20.2l-11.9,1.7c-4.6,0.7-9.9,0-15.5,0
			c-21.5,0-35.4-7.8-41.8-23.4c-1.1-2.9-1.9-6.2-2.5-10c-0.7-4.4-1-9.4-1-15V300c0-7,0.5-13,1.6-18.1c0.9-4.6,2.3-8.3,4.1-11.3
			c7.2-12.6,20.4-18.9,39.8-18.9c7.2,0,17.4,0,27.3,1.9v20c-9.8-1.5-19.2-1.2-24.9-1.2c-9,0-15,1.5-18,4.5c-3.1,2.5-4.6,9.2-4.6,20
			v15.4c0,4.9,0.4,8.8,1.3,11.8c0.7,2.4,1.6,4.2,2.8,5.4c2.9,3.4,9,5.2,18.2,5.2H415.7z"/>
		<path id="XMLID_461_" class="st0" d="M564.8,311.4V330c0,13.8-5,22.9-14.9,27.3c-5,2.1-10.9,3.1-17.6,3.1
			c-14.8,0-24.5-4.8-28.9-14.5c-2.1-4-3.1-8.9-3.1-14.7V310c0-5.6,0.9-12,2.8-16c2.9-6.1,8.1-8.7,15.4-11c4.7-1.4,9-2,13-2h2.2
			c15.2,0,24.9,4.2,29.3,15.7C564.2,300.1,564.8,306.1,564.8,311.4z M542.6,310.6c0-5.8-1.6-9.1-4.9-10c-1-0.5-2.4-0.8-4.3-0.8h-1.8
			c-4,0-6.8,1.6-8.4,4.8c-0.4,1.4-0.7,2.9-0.7,4.6v23.5c-0.5,6.9,3.2,9.4,9.7,9.4h0.6c5.2,0,8.3-2.3,9.6-6.8l0.1-1.7
			c0-0.1,0-0.2,0-0.3L542.6,310.6z"/>
		<path id="XMLID_458_" class="st0" d="M1092.2,311.4V330c0,13.8-5,22.9-14.9,27.3c-5,2.1-10.9,3.1-17.6,3.1
			c-14.8,0-24.5-4.8-28.9-14.5c-2.1-4-3.1-8.9-3.1-14.7V310c0-5.6,0.9-12,2.8-16c2.9-6.1,8.1-8.7,15.4-11c4.7-1.4,9-2,13-2h2.2
			c15.2,0,24.9,4.2,29.3,15.7C1091.5,300.1,1092.2,306.1,1092.2,311.4z M1069.9,310.6c0-5.8-1.6-9.1-4.9-10c-1-0.5-2.4-0.8-4.3-0.8
			h-1.8c-4,0-6.8,1.6-8.4,4.8c-0.4,1.4-0.7,2.9-0.7,4.6v23.5c-0.5,6.9,3.2,9.4,9.7,9.4h0.6c5.2,0,8.3-2.3,9.6-6.8l0.1-1.7
			c0-0.1,0-0.2,0-0.3L1069.9,310.6z"/>
		<path id="XMLID_443_" class="st0" d="M577.8,323.7V282l22.6,1.5v44.3c0,4.5,2.2,7.3,6.5,8.3c1.9,0.2,3.3,0.2,4.4,0.1
			c3.5-0.2,6.1-0.4,9.5-1.7L621,282l22.5,2v70.1h-20.1c0,0-0.5-2.4-0.7-3c0,0-10.3,2.6-12.3,3c-2.5,0.5-5,0.8-7.5,0.9
			c-5.2,0.3-9.3-0.2-12.4-1.4c-4-1.5-7.4-4.4-10-8.7C578.7,341.2,577.8,334.1,577.8,323.7z"/>
		<path id="XMLID_441_" class="st0" d="M765.1,293.8h26.4l-1.7,18.5h-24.8v21.8h36.2v20H739v-99.4h62.3v19.6h-36.2V293.8z"/>
		<path id="XMLID_439_" class="st0" d="M858.5,352.3l-10.7-23.6l-10.7,23.6l-25.2,1.9l17.8-37.4l-16.9-34.7l23.7,1.8l11.3,22.5
			l9.3-22.1l25.3-2.1l-15.7,34.7l16.6,37.4L858.5,352.3z"/>
		<path id="XMLID_436_" class="st0" d="M896.5,281.7H915l1.1,4.8c2-1.1,4-2,5.9-2.7c2.4-0.9,4.7-1.6,7.1-2
			c5.7-1.2,11.3-0.9,16.6,0.7c3.4,1.1,6.4,3,8.9,5.8c0.9,1,1.8,2.2,2.5,3.4l0.9,1.5c0.2,0.4,0.4,0.9,0.7,1.4c0.9,2.5,1.6,5.3,2,8.3
			c0.5,3.4,0.7,7.9,0.7,13.5v7c0,10.8-0.9,15-2.7,18.2c-2.9,6.7-10.8,10.1-23.7,10.1c-2.2,0-4.4-0.1-6.5-0.4l-5-0.9
			c-1.9-0.5-3.4-0.9-4.5-1.4v38.3l-22.3-1.8V281.7z M918.9,329.8c3.7,2.1,7.2,3.1,10.4,3.1l3.2-0.1c4.1-0.9,6.2-3.6,6.2-8.1v-14
			c0-2-0.2-3.5-0.5-4.5c-1.3-4.5-5-6.3-11-5.3l-2.4,0.4l-4.2,1.2l-1.7,0.6V329.8z"/>
		<path id="XMLID_433_" class="st0" d="M720.7,356.7h-18.4c0,0-0.9-3.7-0.9-4l-0.1-0.7c-2,1.1-4,2-5.9,2.7c-2.4,0.9-4.7,1.6-7.1,2
			c-5.7,1.2-11.3,0.9-16.6-0.7c-3.4-1.1-6.4-3-8.9-5.8c-0.9-1-1.8-2.2-2.5-3.4l-0.9-1.5c-0.2-0.4-0.4-0.9-0.7-1.4
			c-0.9-2.5-1.6-5.3-2-8.3c-0.5-3.4-0.7-7.9-0.7-13.5v-1.7c0-10.8,0.9-17.8,2.7-21c2.9-6.7,10.8-10.1,23.7-10.1
			c2.2,0,4.4,0.1,6.5,0.4l5,0.9c1.9,0.5,3.4,0.9,4.5,1.4V254l22.3-2.3V356.7z M698.4,311.2c-3.7-2.1-7.2-3.1-10.4-3.1l-3.2,0.1
			c-4.1,0.9-6.2,3.6-6.2,8.1v11.5c0,2,0.2,3.5,0.5,4.5c1.3,4.5,5,6.3,11,5.3l2.4-0.4l4.2-1.2l1.7-0.6V311.2z"/>
		<path id="XMLID_431_" class="st0" d="M998.9,328.1c0,4.8,1.6,7.8,4.8,8.9c1.6,0.4,6.6,0.7,9.6,0.9c0.5,0,1.1,0.1,1.6,0.1h3.1v18.7
			c-1.4,0.1-3.2,0.1-5.4,0.1c-15.7,0-29.2-1.4-34.1-12.5c-1.3-3.3-1.5-10.5-1.8-13.5c-0.1-0.8-0.1-2-0.1-3.5v-75.8l22.3-2.7V328.1z"
			/>
		<path id="XMLID_426_" class="st0" d="M472.3,328.1c0,4.8,1.6,7.8,4.8,8.9c1.6,0.4,6.6,0.7,9.6,0.9c0.5,0,1.1,0.1,1.6,0.1h3.1v18.7
			c-1.4,0.1-3.2,0.1-5.4,0.1c-15.7,0-29.2-1.4-34.1-12.5c-1.3-3.3-1.5-10.5-1.8-13.5c-0.1-0.8-0.1-2-0.1-3.5v-77l22.3-1.6V328.1z"/>
		<path id="XMLID_424_" class="st0" d="M1151.3,283.2l-0.9,18.3c-3.6-0.2-4.8-0.6-8.9-0.4l-3,0.3c-2.8,0.6-7.6,1.4-14,3.7v49h-22.1
			v-72.7h19c0,0,0.8,3.8,1.2,5.3l5.2-1.9c3.1-1.1,6.9-2.2,11-2.3C1146.6,282.2,1148.8,282.6,1151.3,283.2z"/>
		<path id="XMLID_422_" class="st0" d="M1286.1,283.2l-0.9,18.3c-3.6-0.2-4.8-0.6-8.9-0.4l-3,0.3c-2.8,0.6-7.6,1.4-14,3.7v49h-22.1
			v-72.7h19c0,0,0.8,3.8,1.2,5.3l5.2-1.9c3.1-1.1,6.9-2.2,11-2.3C1281.4,282.2,1283.6,282.6,1286.1,283.2z"/>
		<path id="XMLID_419_" class="st0" d="M1225.6,311.6v12.8h-40.4v2.2c0,4.9,1.5,7.9,4.5,8.9c2.3,0.7,5,1,7.9,1h1.8
			c7.9,0,12.7-0.2,21.1-1.9h0.1l3.3,17.5c0,0.2-3.8,0.9-11.4,2.2c-4.8,0.5-10.2,0.8-16.4,0.8c-15.9,0-26.1-5.4-30.7-16.1
			c-1.7-4.2-2.6-8.7-2.6-13.3v-17.3c0-12.7,5.3-21.1,16-25.3c4.7-1.5,9.8-2.3,15.1-2.3c14.9,0,24.6,4.9,29.1,14.6
			C1224.7,299.2,1225.6,304.6,1225.6,311.6z M1203.3,308.3c0-5-1.1-8-3.2-8.9c-1.6-1.1-3.6-1.7-5.9-1.7c-5.9,0-8.9,2.8-8.9,8.4v3.4
			h18.1V308.3z"/>
	</g>
	<path id="XMLID_415_" class="st0" d="M240.4,197.8l87.3,50.4V349l-87.3,50.4L153.1,349V248.2L240.4,197.8 M240.4,195l-89.7,51.8
		v103.6l89.7,51.8l89.7-51.8V246.8L240.4,195L240.4,195z"/>
	<path id="XMLID_135_" class="st0" d="M274.3,276.3h-3.5c0,0,1.2,2.4,2.2,5.3c1.1,2.9,1.5,5.9,1.5,5.9s0.3,0,0.6,0
		c8.2,0.5,14.7,7.5,14.4,15.9c-0.3,8.3-7.5,14.6-15.8,14.6h-12c6-6.3,9.6-14.8,9.6-24.2c0-19.5-15.8-35.3-35.3-35.3
		c-14.9,0-28.2,9.6-33.2,23.3c-12.4,0.7-22.4,11-22.4,23.7c0,13.1,10.6,23.7,23.7,23.7h23.6c0,0,0,0,0,0h45.8
		c14.3,0,26.5-11.1,27-25.4C301.2,288.7,289.2,276.3,274.3,276.3z M191.6,305.4c0-6.9,5.6-12.6,12.6-12.6h7.3l1-4.4
		c2.4-11,12.4-18.9,23.6-18.9c13.4,0,24.2,10.9,24.2,24.2c0,13.4-10.9,24.2-24.2,24.2h-31.9C197.2,318,191.6,312.3,191.6,305.4z"/>
	<g id="XMLID_133_">
		<path id="XMLID_138_" class="st1" d="M263.8,329.1h-1.1c-15.8,14.6-35.7,16.2-46.4,10.5c0.3,0.4,0.7,0.8,1,1.2
			C226.6,350.6,251.7,345,263.8,329.1z"/>
		<path id="XMLID_33_" class="st1" d="M289,265.8c-0.5-0.7-1.2-1.2-2-1.7c3.1,4.3,2.1,11.8,1,15.9c0,0,0,0,0,0l0.3,0.2c0,0,0,0,0,0
			C292,272.6,291.5,269,289,265.8z"/>
		<path id="XMLID_140_" class="st1" d="M228.8,277.6c-20.9,19.6-26.4,48.2-17.2,58.4c1.2,1.4,2.8,2.6,4.7,3.5
			c-9.6-12.3,0.3-36.2,19.3-54.1c18-17,42.4-26.4,51.4-21.3c-0.2-0.2-0.3-0.4-0.5-0.6C277.2,253.3,249.7,258,228.8,277.6z"/>
	</g>
</g>
</svg>
