<?xml version="1.0" encoding="utf-8"?>
<!-- Generator: Adobe Illustrator 19.0.0, SVG Export Plug-In . SVG Version: 6.00 Build 0)  -->
<svg version="1.1" id="图层_1" xmlns="http://www.w3.org/2000/svg" xmlns:xlink="http://www.w3.org/1999/xlink" x="0px" y="0px"
	 viewBox="850.5 183.1 174 35" style="enable-background:new 850.5 183.1 174 35;" xml:space="preserve">
<style type="text/css">
	.st0{fill:#FFFFFF;}
</style>
<g id="XMLID_1_">
	<g id="XMLID_163_">
		<path id="XMLID_164_" class="st0" d="M1022.3,193l-12.9,0.1v1.9h12.5L1022.3,193z M980.5,201c0.3,0.3,1,0.8,1.8,1.3
			c1.3,0.7,3.1,1.7,3.1,1.7l0.7-2.9c0,0-1.5-0.2-2.9-0.6c-1.1-0.3-2.3-0.7-2.7-0.8v-3.7c0.1-2,0.1-2.8,0.1-2.8h-11.2l0.2,1.9h8v4.9
			c0,6.7,3.1,9.8,7.1,9.9c0.4,0,1.9-0.1,1.9-0.1s0.1-0.5,0.2-0.9l0.9-2.2c0,0-2.4,0.3-3,0.3C982.4,206.8,980.8,204.7,980.5,201z
			 M850.5,209.8h4.2V203h4.2V200h-4.2v-3.6h5.5v-3.3h-9.8V209.8z M861.3,209.8h4.2v-16.6h-4.2V209.8z M867.2,196.4h3.9v13.4h4.2
			v-13.4h3.9v-3.3h-12C867.2,193.2,867.2,196.4,867.2,196.4z M910.5,193.2h-4.2v16.6h9.8v-3.3h-5.5L910.5,193.2L910.5,193.2z
			 M924.3,193.2c-4.1,0-7.3,2.7-7.3,6.1v4.4c0,3.4,3.3,6.1,7.3,6.1s7.3-2.7,7.3-6.1v-4.4C931.7,195.9,928.4,193.2,924.3,193.2z
			 M927.6,203.8c0,1.5-1.5,2.7-3.3,2.7c-1.8,0-3.3-1.2-3.3-2.7v-4.7c0-1.5,1.5-2.7,3.3-2.7c1.8,0,3.3,1.2,3.3,2.7V203.8z
			 M954.9,193.2h-6.4v16.6h6.4c4.1,0,7.3-2.7,7.3-6.1v-4.4C962.3,195.9,959,193.2,954.9,193.2z M958.2,203.8c0,1.5-1.5,2.7-3.2,2.7
			h-2.1v-10.1h2.1c1.8,0,3.2,1.2,3.2,2.7V203.8z M893.6,199.3v4.4c0,3.4,3.3,6.1,7.3,6.1c1,0,4.1-0.3,4.1-0.3v-3.2
			c0,0-3,0.2-4.1,0.2c-1.8,0-3.4-1.2-3.4-2.7v-4.7c0-1.5,1.6-2.7,3.4-2.7c1,0,4.1,0.2,4.1,0.2v-3.2c0,0-3-0.3-4.1-0.3
			C896.9,193.2,893.6,195.9,893.6,199.3z M943.2,203.8c0,1.5-1.5,2.7-3.3,2.7s-3.3-1.2-3.3-2.7v-10.7h-4.1v10.5
			c0,3.4,3.3,6.1,7.3,6.1s7.3-2.7,7.3-6.1v-10.5h-4.1V203.8z M889.5,193.4c-2.2-0.9-6.1-0.2-7.5,0.6v3.7c1.7-1.1,4.1-1.7,5.4-1.2
			c0.9,0.4,1.3,1.3,1.1,2.2c-0.2,0.7-0.7,1.5-1.1,1.9c-2.6,2.5-6.4,6-6.4,6v3.2h11v-3.2c0,0-4.6,0-5.9,0c4-3,6.1-5.2,6.3-8.2
			C892.4,196.4,891.7,194.2,889.5,193.4z M995,199.7l0.1,0.5l2.2,0l-1.1-4.6l-2.1,0l0.6,2.7h-3l1.4-3l-2.1-1l-2,4.2l0.1,1.2H995z
			 M991,194.2h3.7l0,0h2.8l0.6-1.7l-8.7,0v1.7H991L991,194.2z M1004.4,197.3l0.2-1.4h1.2l0.4-1.7h-5.1l0.4-1.8h-2.2
			c0,0-0.2,1-0.5,2.1c-0.4,1.3-1.3,2.9-1.3,2.9s2.4,0,2.3,0c-0.1,0,0.7-1.4,1.1-2.4c0.1-0.4,0.3-0.7,0.3-0.7l0.2,1.7h0.9l-0.2,1.4
			c0,0.6-0.2,1.8-0.4,2.8c0,0.2-0.5,1.3-0.6,1.5c-0.5-1-1.3-3-1.3-3l0-0.1l-2.2,0.1c0,0,1.1,3.7,2.3,5.6c-0.3,0.6-1,1.7-1.7,2.3
			c-0.2,0.2-0.7,0.6-0.9,0.8l0-1.4l-2.1,0.3l0-2.6h3.2l-0.6-1.6l-2.7,0v-1h-2.7v1l-2.8,0l0.2,1.7h2.6v2.8l-3,0.4l-0.5,2.2l8.2-1.2h0
			l-0.1,2c0,0,1.1-0.3,2.2-1.1c0.8-0.6,1.8-2.1,2-2.2l0.1-0.1c0.5,0.7,1,1.3,1.5,1.8c1.7,1.4,3.3,2.3,3.3,2.3l-0.2-3
			c0,0-2.1-1.6-3-3.3c0.2-0.4,0.7-2.1,0.9-2.8C1004.1,200.2,1004.4,198.2,1004.4,197.3z M1024.6,199l-17.1,0.1v2.1h5
			c-1,2.2-3.2,6.4-3.2,6.4l-1,0.5l0.3,1.9l12.4-1.1l0.7,1.4l2.5-1.1l-2.7-4.9l-2.5,0.9l1.1,2l-7.7,0.4l2.9-5.5l-2.7-0.7h11.7
			L1024.6,199z M984,197.7c1.1-0.4,2.2-1.1,2.2-1.1l-1.1-2.2c0,0-0.7,0.7-1.8,1.7c-1.1,0.9-2.4,1.7-2.4,1.7l0.2,0.7
			C981,198.4,982.7,198.1,984,197.7z"/>
	</g>
</g>
</svg>
